<svg width="23" height="22" viewBox="0 0 23 22" fill="none" xmlns="http://www.w3.org/2000/svg">
<path fill-rule="evenodd" clip-rule="evenodd" d="M21.1419 15.9201V18.9201C21.1442 19.4832 20.909 20.0213 20.494 20.402C20.079 20.7827 19.5228 20.9708 18.9619 20.9201C15.8847 20.5857 12.9289 19.5342 10.3319 17.8501C7.91574 16.3148 5.86724 14.2663 4.33191 11.8501C2.64189 9.2413 1.59015 6.27109 1.26191 3.1801C1.21138 2.62097 1.39818 2.06635 1.77667 1.65172C2.15517 1.23709 2.6905 1.00063 3.25191 1.0001H6.25191C7.25577 0.990218 8.11141 1.72607 8.25191 2.7201C8.37853 3.68016 8.61336 4.62283 8.95191 5.5301C9.22664 6.26097 9.05092 7.0849 8.50191 7.6401L7.23191 8.9101C8.65546 11.4136 10.7284 13.4865 13.2319 14.9101L14.5019 13.6401C15.0571 13.0911 15.881 12.9154 16.6119 13.1901C17.5192 13.5286 18.4618 13.7635 19.4219 13.8901C20.4275 14.032 21.1671 14.9049 21.1419 15.9201Z" stroke="#FF6868" stroke-width="2" stroke-linecap="round" stroke-linejoin="round"/>
</svg>
