<svg width="27" height="24" viewBox="0 0 27 24" fill="none" xmlns="http://www.w3.org/2000/svg">
<path fill-rule="evenodd" clip-rule="evenodd" d="M13.1345 23.7938H13.1296C11.1392 23.7931 9.18347 23.2937 7.44642 22.3462L1.14197 24L2.82915 17.8374C1.78841 16.0338 1.24078 13.9879 1.24168 11.8919C1.24428 5.33474 6.57931 0 13.1344 0C16.3158 0.00137307 19.3018 1.23989 21.5471 3.48784C23.7925 5.73568 25.0283 8.72361 25.0271 11.9013C25.0245 18.4569 19.6915 23.7911 13.1345 23.7938ZM7.73865 20.1935L8.09959 20.4077C9.61724 21.3083 11.3569 21.7849 13.1306 21.7856H13.1347C18.5828 21.7856 23.017 17.3512 23.0192 11.9008C23.0202 9.25962 21.9931 6.77618 20.1268 4.90777C18.2606 3.03935 15.7787 2.00989 13.1385 2.00897C7.6862 2.00897 3.2519 6.44287 3.24974 11.8928C3.24897 13.7606 3.77157 15.5795 4.76104 17.1533L4.99606 17.5273L3.9975 21.1749L7.73865 20.1935ZM18.7188 14.4617C18.9261 14.5619 19.066 14.6295 19.1258 14.7293C19.2001 14.8532 19.2001 15.4482 18.9526 16.1424C18.7048 16.8365 17.5177 17.47 16.9467 17.5553C16.4348 17.6318 15.7869 17.6638 15.0751 17.4375C14.6435 17.3006 14.09 17.1178 13.3811 16.8116C10.5953 15.6087 8.71266 12.9087 8.35685 12.3984C8.33193 12.3626 8.3145 12.3376 8.30477 12.3246L8.30237 12.3214C8.14512 12.1116 7.09141 10.7057 7.09141 9.25066C7.09141 7.88189 7.76377 7.16444 8.07326 6.8342C8.09447 6.81157 8.11397 6.79076 8.13143 6.77169C8.4038 6.47419 8.72576 6.39981 8.92385 6.39981C9.12192 6.39981 9.32024 6.40164 9.49337 6.41034C9.51474 6.41141 9.53696 6.41128 9.55993 6.41115C9.7331 6.41013 9.94899 6.40887 10.162 6.92044C10.2439 7.11731 10.3638 7.40916 10.4902 7.71698C10.7459 8.3395 11.0284 9.02732 11.0781 9.12686C11.1525 9.27561 11.202 9.44907 11.1029 9.64748C11.088 9.67723 11.0743 9.7053 11.0612 9.73213C10.9868 9.88401 10.932 9.99573 10.8058 10.1432C10.7561 10.2011 10.7048 10.2636 10.6535 10.3261C10.5513 10.4506 10.449 10.5751 10.36 10.6638C10.2113 10.812 10.0564 10.9727 10.2297 11.2702C10.4031 11.5677 10.9995 12.5408 11.8828 13.3288C12.8325 14.1758 13.6578 14.5338 14.0761 14.7152C14.1578 14.7507 14.224 14.7794 14.2725 14.8037C14.5696 14.9525 14.7429 14.9276 14.9163 14.7293C15.0896 14.531 15.6591 13.8616 15.8572 13.5641C16.0552 13.2667 16.2534 13.3163 16.5258 13.4154C16.7982 13.5147 18.2592 14.2335 18.5563 14.3822C18.6143 14.4112 18.6685 14.4374 18.7188 14.4617Z" fill="#FF6868"/>
</svg>
