<svg width="22" height="23" viewBox="0 0 22 23" fill="none" xmlns="http://www.w3.org/2000/svg">
<path fill-rule="evenodd" clip-rule="evenodd" d="M20.9995 16.42V19.42C21.0017 19.9831 20.7665 20.5211 20.3515 20.9018C19.9366 21.2825 19.3803 21.4707 18.8195 21.42C15.7423 21.0856 12.7865 20.0341 10.1895 18.35C7.77328 16.8146 5.72479 14.7661 4.18945 12.35C2.49943 9.74118 1.44769 6.77097 1.11945 3.67998C1.06893 3.12085 1.25572 2.56623 1.63422 2.1516C2.01271 1.73697 2.54805 1.5005 3.10945 1.49998H6.10945C7.11332 1.4901 7.96895 2.22594 8.10945 3.21998C8.23607 4.18004 8.4709 5.1227 8.80945 6.02998C9.08419 6.76085 8.90847 7.58478 8.35945 8.13998L7.08945 9.40998C8.51301 11.9135 10.5859 13.9864 13.0895 15.41L14.3595 14.14C14.9146 13.591 15.7386 13.4152 16.4695 13.69C17.3767 14.0285 18.3194 14.2634 19.2795 14.39C20.285 14.5318 21.0246 15.4048 20.9995 16.42Z" stroke="#1885E9" stroke-width="2" stroke-linecap="round" stroke-linejoin="round"/>
</svg>
