<svg width="173" height="54" viewBox="0 0 173 54" fill="none" xmlns="http://www.w3.org/2000/svg">
<path d="M5.42519 14.0459H0V33.3932H5.42519V14.0459Z" fill="#F82A2A" fill-opacity="0.96"/>
<path d="M5.42519 34.7546H0V53.4999H5.42519V34.7546Z" fill="#F82A2A" fill-opacity="0.96"/>
<path d="M73.3398 14.5931H76.2543V23.9932H73.3398V14.5931Z" fill="#282828"/>
<path d="M83.9369 20.1415L86.4819 20.9077C86.3108 21.6192 86.044 22.2213 85.6746 22.7002C85.3051 23.1791 84.8536 23.5416 84.3063 23.7811C83.759 24.0274 83.068 24.1437 82.2265 24.1437C81.2072 24.1437 80.3725 23.9932 79.7226 23.699C79.0727 23.4048 78.5185 22.878 78.0465 22.1323C77.5744 21.3866 77.3418 20.4288 77.3418 19.259C77.3418 17.706 77.7523 16.5087 78.5801 15.6741C79.4079 14.8394 80.5778 14.4221 82.0897 14.4221C83.2733 14.4221 84.2037 14.6616 84.881 15.1405C85.5583 15.6194 86.0645 16.3582 86.3929 17.3434L83.8274 17.9112C83.7385 17.6239 83.6427 17.4186 83.5469 17.2818C83.3827 17.0629 83.1843 16.8919 82.9517 16.7687C82.7191 16.6524 82.4523 16.5908 82.165 16.5908C81.5082 16.5908 81.0019 16.8576 80.653 17.3844C80.3862 17.7744 80.2562 18.3969 80.2562 19.2384C80.2562 20.2783 80.4136 20.9967 80.7283 21.3798C81.043 21.7629 81.4877 21.9613 82.0623 21.9613C82.6165 21.9613 83.0406 21.8039 83.3211 21.4961C83.6016 21.1951 83.8069 20.7367 83.9369 20.1415Z" fill="#282828"/>
<path d="M86.8711 19.3C86.8711 17.7675 87.2953 16.5703 88.1573 15.7151C89.0124 14.86 90.2028 14.4358 91.7285 14.4358C93.2951 14.4358 94.4992 14.8531 95.3475 15.6946C96.1959 16.5361 96.62 17.7128 96.62 19.2247C96.62 20.3262 96.4353 21.2224 96.0659 21.9271C95.6964 22.6317 95.1628 23.179 94.465 23.569C93.7672 23.959 92.8915 24.1574 91.8516 24.1574C90.7912 24.1574 89.9155 23.9863 89.2177 23.6511C88.5199 23.3159 87.9589 22.7822 87.5279 22.0502C87.09 21.3114 86.8711 20.3946 86.8711 19.3ZM89.7787 19.3137C89.7787 20.2646 89.9565 20.9419 90.3055 21.3592C90.6612 21.7766 91.1401 21.9818 91.7421 21.9818C92.3647 21.9818 92.8504 21.7766 93.1925 21.3729C93.5346 20.9693 93.7056 20.2373 93.7056 19.1837C93.7056 18.3012 93.5277 17.6512 93.172 17.2407C92.8162 16.8303 92.3305 16.625 91.7216 16.625C91.1333 16.625 90.668 16.8303 90.3123 17.2476C89.9565 17.6649 89.7787 18.3559 89.7787 19.3137Z" fill="#282828"/>
<path d="M97.543 14.5931H100.259L103.796 19.7926V14.5931H106.533V23.9932H103.796L100.273 18.8279V23.9932H97.543V14.5931Z" fill="#282828"/>
<path d="M73.1885 27.5918H77.006L78.4768 33.3112L79.9409 27.5918H83.7584V36.9918H81.3776V29.8221L79.5441 36.9918H77.3891L75.5624 29.8221V36.9918H73.1816V27.5918H73.1885Z" fill="#282828"/>
<path d="M90.7426 35.4388H87.4451L86.9867 36.9918H84.0176L87.5546 27.5918H90.7221L94.2522 36.9918H91.2147L90.7426 35.4388ZM90.1406 33.4069L89.1007 30.0273L88.0745 33.4069H90.1406Z" fill="#282828"/>
<path d="M94.541 27.5918H97.257L100.794 32.7912V27.5918H103.531V36.9918H100.794L97.2707 31.8266V36.9918H94.541V27.5918Z" fill="#282828"/>
<path d="M110.459 35.4388H107.162L106.704 36.9918H103.734L107.271 27.5918H110.439L113.969 36.9918H110.925L110.459 35.4388ZM109.857 33.4069L108.818 30.0273L107.791 33.4069H109.857Z" fill="#282828"/>
<path d="M118.731 33.5847V31.6281H123.219V35.6371C122.357 36.2255 121.597 36.6223 120.94 36.8343C120.277 37.0464 119.497 37.1491 118.587 37.1491C117.472 37.1491 116.562 36.9575 115.857 36.5812C115.153 36.1981 114.605 35.6371 114.222 34.8846C113.832 34.132 113.641 33.27 113.641 32.2917C113.641 31.2655 113.853 30.3761 114.277 29.6167C114.701 28.8573 115.317 28.2827 116.138 27.8859C116.774 27.5848 117.629 27.4275 118.71 27.4275C119.75 27.4275 120.523 27.5233 121.043 27.708C121.556 27.8995 121.987 28.1869 122.322 28.5837C122.664 28.9805 122.917 29.4799 123.089 30.0888L120.284 30.5882C120.167 30.2324 119.976 29.9588 119.695 29.7741C119.415 29.5894 119.066 29.4936 118.642 29.4936C118.005 29.4936 117.499 29.7125 117.116 30.1572C116.74 30.6019 116.548 31.2997 116.548 32.2575C116.548 33.2768 116.74 34.002 117.123 34.4399C117.506 34.8777 118.04 35.0966 118.724 35.0966C119.045 35.0966 119.36 35.0488 119.654 34.953C119.948 34.8572 120.284 34.6998 120.667 34.4741V33.5915H118.731V33.5847Z" fill="#282828"/>
<path d="M124.279 27.5918H132.065V29.5963H127.194V31.0877H131.716V33.0033H127.194V34.8573H132.208V36.985H124.279V27.5918Z" fill="#282828"/>
<path d="M133.084 27.5918H136.901L138.372 33.3112L139.836 27.5918H143.654V36.9918H141.273V29.8221L139.44 36.9918H137.285L135.458 29.8221V36.9918H133.084V27.5918Z" fill="#282828"/>
<path d="M144.852 27.5918H152.637V29.5963H147.766V31.0877H152.288V33.0033H147.766V34.8573H152.781V36.985H144.852V27.5918Z" fill="#282828"/>
<path d="M153.705 27.5918H156.421L159.958 32.7912V27.5918H162.695V36.9918H159.958L156.435 31.8266V36.9918H153.705V27.5918Z" fill="#282828"/>
<path d="M163.311 27.5918H172.143V29.911H169.18V36.9918H166.273V29.911H163.311V27.5918Z" fill="#282828"/>
<path d="M166.539 43.6005H72.7441V48.7315H166.539V43.6005Z" fill="#F82A2A" fill-opacity="0.96"/>
<path d="M5.42519 0.5H0V10.0779H5.42519V0.5Z" fill="#282828"/>
<path d="M12.2182 0.5H6.79297V10.0779H12.2182V0.5Z" fill="#282828"/>
<path d="M12.2182 34.7546H6.79297V53.4999H12.2182V34.7546Z" fill="#F82A2A" fill-opacity="0.96"/>
<path d="M12.2182 14.0459H6.79297V33.3932H12.2182V14.0459Z" fill="#F82A2A" fill-opacity="0.96"/>
<path d="M49.8612 33.3863L52.4062 23.4116V33.3863H62.3945V14.0458H46.3721L41.4258 33.3863H49.8612Z" fill="#F82A2A" fill-opacity="0.96"/>
<path d="M62.3946 34.7546H52.4062V53.4999H62.3946V34.7546Z" fill="#F82A2A" fill-opacity="0.96"/>
<path d="M41.0695 34.7546L40.8848 35.4798V53.4999H44.7159L49.5049 34.7546H41.0695Z" fill="#F82A2A" fill-opacity="0.96"/>
<path d="M27.9952 33.3864V23.4117L30.5402 33.3864H39.0303L34.043 14.0459H18.0137V33.3864H27.9952Z" fill="#F82A2A" fill-opacity="0.96"/>
<path d="M30.8965 34.7546L35.6786 53.4999H39.5166V35.2883L39.3798 34.7546H30.8965Z" fill="#F82A2A" fill-opacity="0.96"/>
<path d="M28.002 34.7546H18.0137V53.4999H28.002V34.7546Z" fill="#F82A2A" fill-opacity="0.96"/>
</svg>
