<svg width="25" height="24" viewBox="0 0 25 24" fill="none" xmlns="http://www.w3.org/2000/svg">
<path fill-rule="evenodd" clip-rule="evenodd" d="M8.54199 23C9.64656 23 10.542 22.1046 10.542 21C10.542 19.8954 9.64656 19 8.54199 19C7.43742 19 6.54199 19.8954 6.54199 21C6.54199 22.1046 7.43742 23 8.54199 23Z" stroke="#282828" stroke-width="2" stroke-linecap="round" stroke-linejoin="round"/>
<path fill-rule="evenodd" clip-rule="evenodd" d="M20.542 23C21.6466 23 22.542 22.1046 22.542 21C22.542 19.8954 21.6466 19 20.542 19C19.4374 19 18.542 19.8954 18.542 21C18.542 22.1046 19.4374 23 20.542 23Z" stroke="#282828" stroke-width="2" stroke-linecap="round" stroke-linejoin="round"/>
<path d="M6.21199 6H23.542L21.862 14.39C21.6733 15.3402 20.8306 16.0186 19.862 16H9.29199C8.28147 16.0086 7.42333 15.262 7.29199 14.26L5.77199 2.74C5.64161 1.7456 4.79491 1.00152 3.79199 1H1.54199" stroke="#282828" stroke-width="2" stroke-linecap="round" stroke-linejoin="round"/>
</svg>
