<svg width="31" height="30" viewBox="0 0 31 30" fill="none" xmlns="http://www.w3.org/2000/svg">
<path d="M15.1421 30C23.4264 30 30.1421 23.2843 30.1421 15C30.1421 6.71573 23.4264 0 15.1421 0C6.85782 0 0.14209 6.71573 0.14209 15C0.14209 23.2843 6.85782 30 15.1421 30Z" fill="#25D366"/>
<path fill-rule="evenodd" clip-rule="evenodd" d="M15.6365 23.3453H15.6328C14.14 23.3448 12.6732 22.9703 11.3704 22.2597L6.64209 23.5L7.90747 18.878C7.12692 17.5253 6.7162 15.9909 6.71687 14.4189C6.71883 9.50106 10.7201 5.5 15.6364 5.5C18.0225 5.50103 20.262 6.42992 21.946 8.11588C23.63 9.80176 24.5569 12.0427 24.5559 14.4259C24.554 19.3427 20.5543 23.3433 15.6365 23.3453ZM11.5895 20.6449L11.8602 20.8056C12.9985 21.481 14.3032 21.8384 15.6335 21.839H15.6365C19.7226 21.839 23.0483 18.5132 23.0499 14.4254C23.0507 12.4445 22.2803 10.5819 20.8806 9.18062C19.481 7.77931 17.6196 7.00721 15.6394 7.00652C11.5502 7.00652 8.22445 10.3319 8.22283 14.4194C8.22225 15.8202 8.6142 17.1845 9.3563 18.3648L9.53257 18.6453L8.78364 21.381L11.5895 20.6449ZM19.8248 16.3463C19.9803 16.4214 20.0853 16.4721 20.1301 16.547C20.1858 16.6399 20.1858 17.0861 20.0001 17.6068C19.8144 18.1274 18.924 18.6025 18.4958 18.6665C18.1118 18.7239 17.6259 18.7478 17.0921 18.5781C16.7684 18.4754 16.3533 18.3383 15.8215 18.1087C13.7322 17.2065 12.3202 15.1815 12.0534 14.7988C12.0347 14.772 12.0216 14.7532 12.0143 14.7435L12.0125 14.7411C11.8946 14.5837 11.1043 13.5293 11.1043 12.438C11.1043 11.4114 11.6086 10.8733 11.8407 10.6256C11.8566 10.6087 11.8712 10.5931 11.8843 10.5788C12.0886 10.3556 12.33 10.2998 12.4786 10.2998C12.6272 10.2998 12.7759 10.3012 12.9058 10.3077C12.9218 10.3085 12.9385 10.3084 12.9557 10.3083C13.0856 10.3076 13.2475 10.3066 13.4072 10.6903C13.4687 10.838 13.5586 11.0569 13.6534 11.2878C13.8452 11.7546 14.0571 12.2705 14.0943 12.3451C14.1501 12.4567 14.1872 12.5868 14.1129 12.7356C14.1018 12.7579 14.0915 12.779 14.0816 12.7991C14.0258 12.913 13.9848 12.9968 13.8901 13.1074C13.8528 13.1508 13.8143 13.1977 13.7759 13.2446C13.6992 13.3379 13.6225 13.4313 13.5558 13.4978C13.4442 13.609 13.328 13.7295 13.458 13.9527C13.588 14.1758 14.0353 14.9056 14.6979 15.4966C15.4101 16.1318 16.0291 16.4003 16.3428 16.5364C16.4041 16.563 16.4537 16.5845 16.4901 16.6027C16.7129 16.7143 16.8429 16.6957 16.9729 16.547C17.103 16.3982 17.5301 15.8962 17.6786 15.6731C17.8272 15.45 17.9758 15.4872 18.18 15.5615C18.3844 15.636 19.4801 16.1751 19.703 16.2866C19.7465 16.3084 19.7871 16.3281 19.8248 16.3463Z" fill="#FDFDFD"/>
</svg>
